<svg width="24" height="21" viewBox="0 0 24 21" fill="none" xmlns="http://www.w3.org/2000/svg">
<path d="M11.5474 14.8335C11.5474 11.5423 14.6122 8.75166 18.5124 8.75166C19.4177 8.75166 20.323 8.96632 21.1595 9.25332C21.1595 4.53066 16.4929 0.666656 10.8509 0.666656C5.07004 0.666656 0.333374 4.67299 0.333374 9.46682C0.333374 12.5433 2.28404 15.4052 5.21004 16.8367V20.0567C5.21004 20.4148 5.48771 20.6283 5.90537 20.4148L10.0844 18.2682H11.1297C11.6174 18.2682 12.105 18.2682 12.5227 18.1247C11.8262 17.1225 11.5474 15.978 11.5474 14.8335ZM18.5124 10.5402C15.5875 10.5402 13.2192 12.401 13.2192 14.8335C13.2192 17.266 15.5875 19.2692 18.4424 19.2692H18.7912L19.4877 19.5562L20.6019 20.2713C20.9507 20.2713 21.2984 20.2713 21.2984 19.842V18.554C22.6914 17.8388 23.6667 16.4073 23.6667 14.8335C23.6667 12.401 21.3684 10.5402 18.4424 10.5402H18.5124Z" fill="currentColor"/>
</svg>
