<svg width="13" height="13" viewBox="0 0 13 13" fill="none" xmlns="http://www.w3.org/2000/svg">
<path d="M8.45349 6.63002L11.6322 9.76869C12.3362 10.42 12.3362 11.396 11.6322 12.1014C11.0902 12.806 10.0068 12.806 9.35682 12.1014L6.16016 8.97669L3.01816 12.0467C2.36816 12.752 1.39282 12.752 0.688156 12.0467C-0.0158437 11.5047 -0.0158437 10.42 0.688156 9.76869L3.80682 6.63002L0.742823 3.47735C-0.0158437 2.82669 -0.0158437 1.85069 0.742823 1.19935C0.863736 1.02376 1.02552 0.88019 1.21424 0.781008C1.40296 0.681825 1.61296 0.630002 1.82616 0.630002C2.03935 0.630002 2.24935 0.681825 2.43807 0.781008C2.62679 0.88019 2.78858 1.02376 2.90949 1.19935L6.16016 4.24402L9.30216 1.19935C9.95216 0.440019 10.9275 0.440019 11.5775 1.19935C12.2822 1.74202 12.2822 2.82602 11.5775 3.47735L8.45349 6.63002Z" fill="currentColor"/>
</svg>
