<svg width="24" height="24" viewBox="0 0 24 24" fill="none" xmlns="http://www.w3.org/2000/svg">
<path d="M22.419 8.61899L16.1285 7.85999C15.956 7.85999 15.68 7.57249 15.588 7.38849L12.897 1.35099C12.3565 0.212491 11.5515 0.212491 11.103 1.35099L8.40046 7.38849C8.40046 7.57249 8.13596 7.84849 7.85996 7.84849L1.56946 8.60749C0.407964 8.60749 0.131964 9.56199 1.04046 10.505L5.70946 14.8405C5.88196 15.0245 5.97396 15.4155 5.88196 15.5995L4.63996 22.2005C4.45596 23.3275 5.09996 23.9025 6.16946 23.1435L11.563 19.935H12.46L17.8535 23.2355C18.7505 23.9025 19.6475 23.2355 19.291 22.1085L18.118 15.496C18.118 15.496 18.118 15.036 18.3825 14.8405L22.879 10.4015C23.776 9.45849 23.776 8.51549 22.4305 8.51549V8.60749L22.419 8.61899Z" fill="currentColor"/>
</svg>
